<?xml version="1.0" encoding="UTF-8" standalone="no"?>
<svg
   width="256"
   height="256"
   version="1.1"
   id="svg256"
   sodipodi:docname="token-logo.svg"
   inkscape:version="1.2.2 (b0a8486541, 2022-12-01)"
   viewBox="0 0 1024 1024"
   inkscape:export-filename="logo-for-a-decent-cloud--decentralized-cloud--proj.png"
   inkscape:export-xdpi="96"
   inkscape:export-ydpi="96"
   xml:space="preserve"
   xmlns:inkscape="http://www.inkscape.org/namespaces/inkscape"
   xmlns:sodipodi="http://sodipodi.sourceforge.net/DTD/sodipodi-0.dtd"
   xmlns="http://www.w3.org/2000/svg"
   xmlns:svg="http://www.w3.org/2000/svg"><sodipodi:namedview
     id="namedview258"
     pagecolor="#ffffff"
     bordercolor="#666666"
     borderopacity="1.0"
     inkscape:showpageshadow="2"
     inkscape:pageopacity="0.0"
     inkscape:pagecheckerboard="0"
     inkscape:deskcolor="#d1d1d1"
     showgrid="false"
     inkscape:zoom="2.8284272"
     inkscape:cx="176.42314"
     inkscape:cy="119.14749"
     inkscape:window-width="3796"
     inkscape:window-height="1537"
     inkscape:window-x="0"
     inkscape:window-y="0"
     inkscape:window-maximized="1"
     inkscape:current-layer="svg256" /><path
     fill="#032e43"
     d="m 0,0 c 341.33333,0 682.66667,0 1024,0 0,341.33333 0,682.66667 0,1024 -341.33333,0 -682.66667,0 -1024,0 C 0,682.66667 0,341.33333 0,0 Z"
     id="path147" /><path
     fill="#fdfdfc"
     d="m 641.40726,749.81514 14.89048,0.2208 0.004,86.86989 c 10.26339,-0.0362 20.53331,0.28905 30.7954,0.47774 l -0.0523,20.36003 c -15.30565,-0.34325 -30.62176,-0.25092 -45.92872,-0.31314 -0.17626,-35.85036 0.19716,-71.76094 0.29115,-107.61532 z"
     id="path149"
     style="stroke-width:1.61887" /><path
     fill="#fdfdfc"
     d="m 471.15454,749.9958 56.84883,0.014 -0.0796,20.05492 c -7.02548,0.22482 -14.06664,0.0623 -21.09341,0.0482 l 0.09,57.30437 0.005,32.0666 c -4.99657,0.28705 -10.01533,0.1184 -15.01581,0.0822 l -0.11358,-89.56568 -20.72394,-0.0723 z"
     id="path151"
     style="stroke-width:1.61887" /><path
     fill="#fdfdfc"
     d="m 597.42,748.84762 c 9.37741,-1.54001 19.4942,0.39653 27.19053,9.40449 1.63728,2.49573 6.26548,5.4943 2.8315,8.67998 -2.42485,3.88808 -5.0632,7.4387 -7.60081,11.14783 -4.58586,-7.11545 -11.15036,-11.84661 -17.75139,-9.98842 -8.30438,1.72305 -15.92947,10.78011 -18.29549,23.33785 -3.08407,14.80664 -0.54115,33.43011 8.28179,42.28688 6.72533,7.109 15.89882,6.67562 22.87078,0.60847 2.74295,-1.58519 5.49738,-8.12208 8.02741,-2.29781 1.76282,3.09985 5.38703,6.86405 5.52246,10.23207 -6.47456,9.96396 -15.41719,15.75678 -24.56239,16.10402 -10.67775,0.82391 -22.10157,-4.94762 -28.75071,-18.36489 -7.6302,-15.02786 -8.98956,-35.80261 -6.05521,-53.88947 2.2477,-14.422 8.93618,-27.14276 17.95975,-32.6776 3.30624,-2.16894 6.802,-3.58817 10.33178,-4.5834 z"
     id="path153"
     style="stroke-width:1.61887" /><path
     fill="#fdfdfc"
     d="m 829.5625,749.09252 q 6.52805,0.12038 13.05348,0.3573 c 0.10967,21.16496 1.9075,59.27754 -1.25991,78.46933 -1.0249,6.20857 -2.97418,11.85711 -5.85044,16.51204 -5.40261,8.74982 -13.1279,12.58577 -20.82838,12.92901 -8.61702,0.38139 -17.88293,-3.02098 -24.19815,-12.49342 -9.41736,-14.12536 -7.43937,-36.39635 -7.34927,-54.83539 l 0.10313,-40.66187 c 4.73283,-0.1907 9.48003,0.0502 14.21287,0.17665 0.34728,18.54743 -2.68303,65.18904 3.31755,79.39269 1.91271,4.52847 4.73022,7.5896 8.19269,8.58924 4.17535,1.20838 9.39387,0.008 12.88637,-3.87208 11.08723,-12.31278 4.52785,-62.98705 6.50847,-83.37718 z"
     id="path155"
     style="stroke-width:1.61887" /><path
     fill="#fdfdfc"
     d="m 290.51569,748.83759 c 9.15476,-1.65879 19.03806,-0.26783 26.79614,8.03665 2.64452,2.72517 5.02577,6.02186 7.17582,9.62357 -3.80793,5.44589 -7.80484,10.5653 -11.73222,15.80345 -4.47847,-8.62784 -11.89537,-13.84677 -19.08244,-11.65311 -8.22643,2.01848 -15.57419,11.41806 -17.72642,23.94174 -3.10819,15.67477 1.74255,34.80267 11.85212,41.18984 7.08455,4.98896 15.37955,2.04947 21.65992,-4.33183 2.65743,-4.67696 5.8707,-3.42873 8.10924,1.1668 1.7294,3.39412 5.16744,7.26231 5.39357,10.7693 -6.46597,10.8099 -15.82514,17.07764 -25.35923,17.25112 -12.48176,0.69409 -25.81605,-6.83938 -33.03862,-23.13787 -7.54082,-16.96621 -8.07671,-40.24044 -2.31992,-58.56995 4.54877,-14.6405 13.85701,-24.7008 23.94961,-28.57157 1.42716,-0.5928 2.87012,-1.09437 4.32243,-1.51814 z"
     id="path157"
     style="stroke-width:1.61887" /><path
     fill="#fdfdfc"
     d="m 334.19484,750.25273 47.26697,0.17865 0.002,19.84015 c -10.19418,-0.3573 -20.42364,-0.0903 -30.62305,-0.0802 l -0.0314,23.92098 26.25711,0.12846 v 19.10548 c -5.42351,-0.11045 -22.22017,-2.49708 -26.3224,1.02172 l -0.30159,3.26386 -0.017,20.99234 32.42611,0.2469 -0.0745,19.45876 -48.86242,0.0623 q -0.0732,-54.07262 0.2807,-108.13922 z"
     id="path159"
     style="stroke-width:1.61887" /><path
     fill="#fdfdfc"
     d="m 199.29279,750.43741 c 15.58767,-0.85712 31.38946,-0.0241 46.99802,0.018 l -0.15015,20.32993 -29.98723,0.0541 -0.0887,23.04982 26.36024,0.0923 -0.0444,19.97463 c -6.77349,-0.0802 -20.13248,-1.9812 -26.10695,0.62829 l -0.41257,2.0896 -0.0392,21.38977 q 15.53936,0.018 31.0735,0.56606 l 0.005,19.22993 -47.79834,0.0281 z"
     id="path161"
     style="stroke-width:1.61887" /><path
     fill="#fdfdfc"
     d="m 444.22114,749.99379 c 4.92606,-0.13649 9.86779,0.10436 14.79515,0.22282 q -0.15014,54.63666 0.27941,109.26932 c -3.90117,0.25092 -7.8193,0.25092 -11.72306,0.3573 -4.04217,-6.39927 -7.50857,-14.1053 -11.07418,-21.15693 -7.76707,-15.36386 -15.36703,-31.01478 -23.58714,-45.81459 l 0.0704,66.002 c -4.79942,0.91934 -10.03622,0.30912 -14.88917,0.28905 -0.24545,-35.90857 -1.41006,-72.89305 0.16973,-108.69725 l 12.1735,0.10038 q 16.70527,32.70292 33.64293,65.12482 z"
     id="path163"
     style="stroke-width:1.61887" /><path
     fill="#fdfdfc"
     d="m 861.51729,749.08448 c 16.65304,-0.22281 39.41894,-4.92992 52.60952,13.80219 6.55939,9.31387 9.63279,22.15859 10.08977,35.61953 0.5744,16.87736 -3.12826,30.22992 -10.37179,42.57681 -14.84216,20.01478 -34.20173,15.42007 -52.49853,15.125 q -0.12665,-53.56276 0.17103,-107.12353 z"
     id="path165"
     style="stroke-width:1.61887" /><path
     fill="#032e43"
     d="m 877.68072,766.45565 c 7.98511,0.12646 15.34875,-0.44963 22.26325,6.91514 4.67929,4.98212 7.67176,12.44526 8.51388,21.09672 1.22336,12.5416 -1.39962,24.43284 -6.28781,34.34288 -7.0973,9.82773 -15.7104,8.76588 -24.58985,8.93449 z"
     id="path167"
     style="stroke-width:1.61887" /><path
     fill="#fdfdfc"
     d="m 120.41181,750.83284 c 17.25885,-0.0623 41.55884,-5.13467 55.07451,14.99253 6.51107,9.69726 9.63017,23.83065 9.72418,37.59068 0.10575,15.45621 -3.6087,28.89306 -10.51799,39.97135 -15.11765,19.29415 -36.06354,14.85 -54.37209,14.72956 z"
     id="path169"
     style="stroke-width:1.61887" /><path
     fill="#032e43"
     d="m 136.75673,770.73321 c 7.91591,-0.13851 16.70396,-0.73267 23.4396,6.79672 4.31635,4.82554 6.52544,12.1301 7.23829,20.11112 1.10194,12.34489 -0.22194,22.04416 -5.1911,31.82372 -7.72267,9.11716 -16.36319,8.1958 -25.52987,8.19379 z"
     id="path171"
     style="stroke-width:1.61887" /><path
     fill="#fdfdfc"
     d="m 727.46257,747.99854 c 13.20516,-1.6649 27.51385,7.00223 34.47194,24.96929 8.54168,20.57033 6.79251,50.04014 -4.66032,67.21706 -8.21655,12.72275 -20.44466,19.54115 -32.03302,16.33625 -11.95692,-2.38433 -23.26203,-14.305 -27.72468,-31.83684 -6.03185,-22.54464 -1.79168,-51.32369 11.21055,-65.96772 5.38753,-6.36246 12.10201,-9.28402 18.73553,-10.71804 z"
     id="path173"
     style="stroke-width:1.61887" /><path
     fill="#032e43"
     d="m 726.27969,767.92098 c 4.70411,-0.86915 8.71755,-1.03376 13.09264,2.15585 5.25248,3.82791 8.98391,10.82335 10.90054,19.19177 2.21561,9.67118 1.92838,20.9261 -0.98965,30.17974 -2.86582,9.09106 -7.36495,14.32611 -13.51306,17.35913 -4.20798,1.21241 -8.08172,0.98357 -12.13433,-1.38905 -5.21329,-3.05512 -9.20324,-9.57079 -11.26871,-17.46751 -2.53288,-9.68122 -2.52896,-21.2834 0.18278,-30.88432 2.83186,-10.02244 7.41586,-15.08886 13.72979,-19.14561 z"
     id="path175"
     style="stroke-width:1.61887" /><defs
     id="defs182"><linearGradient
       id="gradient_0"
       gradientUnits="userSpaceOnUse"
       x1="626.60754"
       y1="589.91522"
       x2="624.04993"
       y2="640.47217"
       gradientTransform="matrix(1.6156403,0,0,1.6156403,-297.84729,-331.77004)"><stop
         offset="0"
         stop-color="#69E8DD"
         id="stop177" /><stop
         offset="1"
         stop-color="#4FE0FB"
         id="stop179" /></linearGradient></defs><path
     fill="url(#gradient_0)"
     d="m 747.00182,671.80592 c 21.90493,-7e-5 44.6563,1.08571 66.45129,-0.67857 31.48559,-2.54948 56.89638,-19.05324 76.94163,-42.7046 0.95969,1.65926 1.59626,2.08579 3.20866,3.03256 2.90493,1.7045 13.71356,8.9668 15.02707,11.63261 -20.40715,27.49819 -53.81051,46.05544 -87.54185,50.87489 -25.63052,3.66104 -60.20199,1.69158 -86.78896,1.69804 -393.24997,-0.10693 -392.65372,-24.30605 12.70216,-23.85493 z"
     id="path184"
     style="fill:url(#gradient_0);stroke-width:1.61564"
     sodipodi:nodetypes="cccccccc" /><defs
     id="defs191"><linearGradient
       id="gradient_1"
       gradientUnits="userSpaceOnUse"
       x1="713.4259"
       y1="440.39105"
       x2="690.01111"
       y2="592.98553"
       gradientTransform="matrix(1.6156403,0,0,1.6156403,-297.84729,-331.77004)"><stop
         offset="0"
         stop-color="#B5E079"
         id="stop186" /><stop
         offset="1"
         stop-color="#6BF1DE"
         id="stop188" /></linearGradient></defs><path
     fill="url(#gradient_1)"
     d="m 770.46738,423.13465 c 36.39715,-7.28008 73.82345,-0.82559 104.87283,19.8853 0.95215,0.63764 1.89622,1.28659 2.83221,1.94685 0.936,0.66133 1.86392,1.33344 2.78375,2.01632 0.91984,0.68395 1.8316,1.37868 2.73528,2.08417 0.90261,0.70657 1.79659,1.42338 2.68196,2.15042 0.88537,0.72811 1.76159,1.46646 2.62865,2.21504 0.86706,0.74966 1.72497,1.50955 2.57372,2.27967 0.84767,0.77012 1.68619,1.55047 2.51555,2.34106 0.83044,0.79059 1.65011,1.59141 2.459,2.40246 0.80997,0.81105 1.61025,1.63126 2.40084,2.46062 0.78951,0.83044 1.56879,1.67057 2.33784,2.5204 0.76904,0.84983 1.52731,1.70881 2.27482,2.57694 0.74858,0.86707 1.48639,1.74382 2.21342,2.63027 0.72597,0.88645 1.4417,1.78151 2.14719,2.68519 0.70442,0.90368 1.39753,1.81544 2.07933,2.73528 0.68288,0.92091 1.35391,1.84991 2.01309,2.78698 0.66025,0.93707 1.30866,1.88222 1.94523,2.83545 0.63656,0.95323 1.26127,1.91399 1.87414,2.8823 0.61287,0.96723 1.21389,1.94254 1.80306,2.92593 0.58917,0.98338 1.16595,1.97323 1.73035,2.96954 0.56547,0.99739 1.11802,2.00124 1.65764,3.01156 0.5407,1.01139 1.06848,2.0287 1.58333,3.05194 0.51593,1.02324 1.01893,2.05294 1.50901,3.0891 0.49007,1.03509 0.96723,2.07664 1.43146,3.12465 0.4653,1.04801 0.91714,2.10087 1.35552,3.15858 0.43837,1.05878 0.86382,2.12295 1.27635,3.1925 0.41361,1.06848 0.81321,2.14234 1.19881,3.22159 0.38667,1.07817 0.75989,2.16119 1.11964,3.24905 0.36083,1.08895 0.70765,2.18166 1.04047,3.27814 0.33282,1.0954 0.65272,2.19565 0.95969,3.30075 0.30589,1.10402 0.59832,2.21181 0.87729,3.32337 0.27897,1.11156 0.54447,2.22635 0.79651,3.34438 0.25204,1.11802 0.49008,2.23874 0.71412,3.36215 6.73399,34.9883 0.68826,72.39199 -19.52663,101.97275 -2.10249,3.08695 -4.34661,6.0678 -6.73238,8.94257 -1.31351,-2.66581 -12.12214,-9.92811 -15.02707,-11.63261 -1.6124,-0.94677 -2.24897,-1.3733 -3.20866,-3.03256 19.32952,-26.90526 28.28179,-55.39707 22.74014,-88.57263 -5.23629,-31.34504 -23.37024,-58.55888 -49.2221,-76.793 -29.31579,-20.6802 -63.13832,-29.61284 -98.46681,-15.42452 -26.35257,10.95419 -15.74764,8.50312 -22.03572,9.12999 -2.52847,0.25204 -4.58842,-0.56225 -6.46417,-2.21343 -0.51485,-0.45561 -0.99955,-0.94192 -1.45408,-1.45892 -1.4977,-1.70612 -2.41377,-3.6869 -2.23928,-6.01988 18.29952,-61.23402 -4.32144,-78.94743 41.13366,-87.92062 7.55425,37.66909 4.56742,40.33723 -3.919,63.98491 z"
     id="path193"
     style="fill:url(#gradient_1);stroke-width:1.61564"
     sodipodi:nodetypes="cccccccccccscccccscscccccccccccssccccccccsccccc" /><defs
     id="defs200"><linearGradient
       id="gradient_2"
       gradientUnits="userSpaceOnUse"
       x1="407.62735"
       y1="451.17563"
       x2="376.97708"
       y2="656.32245"
       gradientTransform="matrix(1.6156403,0,0,1.6156403,-297.84729,-331.77004)"><stop
         offset="0"
         stop-color="#C0E9B2"
         id="stop195" /><stop
         offset="1"
         stop-color="#4DF"
         id="stop197" /></linearGradient></defs><path
     fill="#032e43"
     d="m 419.23849,280.17149 c 45.75515,-80.60195 155.41687,-114.38747 239.32488,-75.70215 58.42023,22.04541 82.36367,82.32674 88.76301,139.96457 8.20566,32.46514 8.96502,70.49327 -12.81303,97.7613 0.16573,33.81619 43.44782,-8.52465 63.03738,0.20468 74.5461,-3.27021 136.94826,78.72523 111.91046,149.53932 -14.89716,49.36924 -65.18581,84.06399 -116.66607,80.11526 -66.91664,-0.0493 -133.85081,-1.12255 -200.76067,0.35409 10.80196,-9.6461 -17.17795,17.80948 -28.54682,10.75289 -24.92865,13.70799 -62.60512,3.05544 -58.83169,-18.43292 -14.37567,0.27745 -46.41999,-22.15986 -20.53037,-0.43375 3.76583,23.78033 -38.07743,-2.25487 -21.9083,6.12105 -70.75001,1.81216 -141.60232,1.02315 -212.366,1.02581 -64.29109,-0.18873 -116.3745,-69.01317 -97.41578,-130.82593 11.69833,-46.19142 58.92736,-79.43859 106.28695,-75.53268 22.81288,-15.88467 -11.38044,-51.9991 2.61356,-77.12131 12.17397,-36.42617 28.59172,-75.72811 60.85297,-99.18557 24.42103,-19.63681 57.06765,-21.09436 86.00582,-12.14699 3.72613,1.03415 7.41126,2.21621 11.0437,3.54233 z"
     id="path206"
     style="stroke-width:1.61564"
     sodipodi:nodetypes="cccsccccscccccccccc" /><path
     fill="url(#gradient_4)"
     d="m 457.2733,666.5355 c -28.30699,-13.83986 -50.52126,-38.90284 -64.59158,-66.78274 -20.90427,-45.40988 -18.49578,-101.64749 10.0518,-143.31451 32.81638,-51.29851 98.35453,-78.57915 157.86542,-65.55341 63.94693,12.35749 115.67435,70.79491 119.01385,136.02937 3.40598,44.66404 -15.95471,90.24532 -51.17891,118.15374 -31.50997,26.50963 -74.06652,41.6315 -115.28568,34.93653 -14.98894,-4.37553 -22.85139,-18.12197 -36.09212,-24.30322 -11.00748,-4.57021 16.34727,6.07259 22.24061,8.81432 14.14515,6.90112 30.54023,12.13209 40.70895,24.67439 -6.35561,11.38695 -27.49578,0.37765 -38.40461,-1.72084 -15.4785,-5.33856 -30.31169,-12.48707 -44.32773,-20.93363 z"
     id="path234"
     style="stroke-width:1.61564;fill-opacity:1;fill:url(#gradient_4)"
     sodipodi:nodetypes="cccccccccccscscsssccscssccsccccccsccccscsccccsccccscccssssscccsscccccccccccscsccccccscccccccscccscccccc" /><path
     fill="url(#gradient_2)"
     d="m 263.23712,437.79174 c 21.17329,40.15797 -38.26998,20.82978 -57.57256,38.08945 -53.36724,24.61903 -74.104,98.30781 -40.48388,146.83997 22.13534,37.64112 67.67505,52.76253 109.41002,49.13114 144.32292,-0.1585 288.66122,0.21032 432.98246,1.23939 41.58234,1.80007 84.01941,-0.13947 124.78227,8.98228 -18.08465,11.55183 -52.10651,7.73798 -76.43636,10.89424 -131.58097,5.38517 -263.33577,1.93917 -394.99013,2.7722 -44.10465,-0.8976 -88.46389,2.21348 -132.33474,-2.42605 -61.46574,-10.60934 -108.29373,-70.34627 -104.47342,-132.53171 1.671,-58.73819 50.02938,-110.9609 108.33411,-117.89222 13.20998,-9.37251 -4.48129,-33.72348 5.74335,-64.35664 6.86231,-33.62644 28.23457,-64.19 55.92264,-83.75804 29.2109,-5.78773 32.81089,8.71982 6.36707,29.12765 -31.45555,24.2756 -49.23755,74.50026 -37.25083,113.88834 z"
     id="path202"
     style="stroke-width:1.61564;fill-opacity:1;fill:url(#gradient_2)"
     sodipodi:nodetypes="ssccccsscssccss" /><path
     fill="#76ecea"
     d="m 300.00586,516.59298 c 9.40494,-0.869 19.34117,3.25726 24.59474,11.26901 7.65203,11.20327 5.2004,28.26338 -5.82367,36.37871 -3.94734,2.90058 -8.67897,4.78358 -13.53317,5.3876 -6.86249,0.28066 -14.0893,-1.31677 -19.43587,-5.84043 -8.19221,-6.47872 -11.54711,-18.07999 -8.50383,-28.00806 2.11118,-7.6004 7.8174,-14.10518 15.21495,-16.93004 2.41286,-0.99899 4.93594,-1.71071 7.48685,-2.25679 z"
     id="path208"
     style="stroke-width:1.61564" /><path
     fill="#81ecb2"
     d="m 752.98938,518.93081 c 15.21789,-2.73544 31.84295,9.69984 31.19853,25.69885 0.85385,17.60837 -18.30096,34.4123 -35.5125,27.25636 -16.37029,-6.17656 -23.54023,-29.06226 -11.97543,-42.78526 4.02448,-5.14155 9.87482,-8.87239 16.2894,-10.16995 z"
     id="path210"
     style="stroke-width:1.61564" /><path
     fill="#fdd75b"
     d="m 419.23849,280.17149 c 32.94311,-57.47923 99.61271,-92.84582 165.41618,-91.69758 33.56219,0.90997 67.76155,9.55899 96.05671,27.91039 51.65047,33.80652 70.79538,74.30428 87.71699,120.90538 5.90786,13.96811 12.53797,36.08973 -10.01543,32.68228 -10.53716,0.14641 -5.31475,-5.22945 -18.4494,-36.03999 -17.47736,-41.23761 -42.10864,-84.14525 -84.70052,-103.3924 -52.27702,-26.40552 -118.13396,-21.66891 -165.94088,12.12624 -18.82941,12.87435 -35.0454,29.47671 -47.76681,48.39186 16.67608,12.1641 35.19419,24.72463 44.35075,43.8594 6.19658,16.40506 -18.53574,26.48458 -25.03249,8.51664 -25.77014,-38.90747 -79.2612,-56.93151 -123.22227,-40.76993 -13.67594,0.93228 -31.17752,22.56352 -41.31034,15.93317 -14.01775,-8.37749 -14.12838,-18.02776 4.23827,-28.37552 36.12782,-20.38507 79.60996,-25.02529 118.65924,-10.04994 z"
     id="path225"
     style="stroke-width:1.61564"
     sodipodi:nodetypes="ccccccccccssscc" /><path
     fill="#fdd75b"
     d="m 359.77485,330.9236 c 1.57848,-0.21488 3.13111,-0.26658 4.72252,-0.21004 4.57872,0.16157 8.6356,1.98562 11.72309,5.43825 1.98562,2.2215 2.96954,4.86954 2.76274,7.8617 -0.94515,13.60046 -23.75153,12.89604 -35.60063,19.60741 -19.10333,10.82156 -16.41975,24.79685 -27.61776,35.08686 -1.09379,0.42815 -2.2005,0.75935 -3.34437,1.02917 -2.8613,0.67695 -7.87463,0.25042 -10.32394,-1.55425 -2.62219,-1.93231 -3.76283,-4.47855 -4.13927,-7.66783 -1.2602,-10.66484 6.35108,-23.45909 12.5309,-31.71825 12.21101,-16.31958 29.30287,-25.09089 49.28672,-27.87302 z"
     id="path212"
     style="stroke-width:1.61564" /><path
     fill="#fdd75b"
     d="m 577.58255,245.84883 c 12.99783,-0.31344 25.12321,0.63333 37.75105,3.90338 q 1.62857,0.42653 3.24744,0.89345 1.61887,0.46531 3.22482,0.971 1.60756,0.5057 3.20058,1.05017 1.59464,0.54447 3.17473,1.12771 1.5801,0.58325 3.14404,1.20527 1.56555,0.62041 3.11657,1.27959 1.5494,0.65918 3.08264,1.35714 1.53324,0.69634 3.04871,1.42984 1.51547,0.73512 3.01317,1.50578 1.4977,0.77066 2.97601,1.57686 1.47831,0.80782 2.93724,1.65118 1.4573,0.84175 2.89522,1.72066 1.43631,0.87729 2.85161,1.79013 1.41692,0.91284 2.8096,1.8596 1.39268,0.94677 2.76113,1.92746 1.37006,0.9807 2.71427,1.9937 1.34583,1.01462 2.66581,2.05994 1.31998,1.04694 2.6141,2.12457 1.29413,1.07763 2.56079,2.18758 1.26828,1.10833 2.50748,2.24897 1.24081,1.13903 2.45254,2.30875 1.21173,1.16972 2.39599,2.36853 1.18265,1.1988 2.33622,2.42507 1.15357,1.22789 2.27644,2.48163 1.12287,1.25535 2.21504,2.53817 1.09379,1.2812 2.15365,2.58987 1.06147,1.30705 2.09064,2.64157 1.02754,1.3329 2.02439,2.69166 0.99524,1.35714 1.95816,2.74012 0.96292,1.38138 1.89192,2.78698 0.92737,1.40561 1.82244,2.83222 0.89345,1.42661 1.75297,2.87584 c 7.11851,12.25948 20.93708,44.03912 16.58131,58.25353 -1.24404,4.05525 -3.98578,6.00695 -7.52242,8.01034 -1.8596,0.2892 -3.78544,0.57194 -5.67413,0.45076 -3.90338,-0.25042 -7.05711,-2.13264 -8.9668,-5.56426 -2.69973,-4.85015 -2.57371,-12.04298 -3.67397,-17.50223 -3.70143,-18.38276 -14.03506,-36.89638 -26.78893,-50.513 -19.27943,-20.58002 -46.90688,-33.68771 -75.10788,-34.67487 -5.847,-0.20518 -11.16408,-0.39421 -15.26619,-5.16681 -2.1488,-2.50102 -2.96147,-5.31869 -2.6755,-8.58552 0.47985,-5.49156 3.38638,-8.46918 7.4271,-11.85233 z"
     id="path214"
     style="stroke-width:1.61564" /><defs
     id="defs221"><linearGradient
       id="gradient_3"
       gradientUnits="userSpaceOnUse"
       x1="712.56903"
       y1="509.88977"
       x2="680.86432"
       y2="597.87006"
       gradientTransform="matrix(1.6156403,0,0,1.6156403,-297.84729,-331.77004)"><stop
         offset="0"
         stop-color="#93EAA3"
         id="stop216" /><stop
         offset="1"
         stop-color="#67EBC0"
         id="stop218" /></linearGradient></defs><path
     fill="url(#gradient_3)"
     d="m 805.79497,477.69644 c 13.36458,-0.56225 29.42404,5.33323 40.67213,12.28533 18.31328,11.31594 30.73917,30.94435 35.44068,51.76026 4.57065,20.23913 0.13087,41.69645 -11.02674,59.07104 -13.85735,21.57526 -34.28227,31.40159 -58.61058,36.82044 -0.81913,0.10987 -1.63988,0.23589 -2.46547,0.28274 -2.63349,0.14703 -5.05534,-0.79166 -6.91494,-2.64642 -2.88876,-2.8823 -6.46902,-7.26068 -6.01018,-11.64715 1.03401,-9.91195 18.30843,-10.68261 25.1636,-13.03337 5.01817,-1.72227 9.85702,-4.44786 14.11261,-7.60805 12.75548,-9.47573 20.90477,-22.5915 23.02288,-38.40054 3.17796,-23.70144 -9.13483,-47.60807 -31.01545,-57.66866 -7.52565,-3.45909 -24.65467,-4.01487 -29.12353,-10.47743 -1.7659,-2.55271 -2.61411,-5.81469 -1.84183,-8.85855 1.2085,-4.75806 4.61104,-7.42387 8.59682,-9.87964 z"
     id="path223"
     style="fill:url(#gradient_3);stroke-width:1.61564" /><defs
     id="defs232"><linearGradient
       id="gradient_4"
       gradientUnits="userSpaceOnUse"
       x1="520.57867"
       y1="446.31296"
       x2="521.17883"
       y2="575.46667"
       gradientTransform="matrix(1.6156403,0,0,1.6156403,-297.84729,-331.77004)"><stop
         offset="0"
         stop-color="#AFE8AC"
         id="stop227" /><stop
         offset="1"
         stop-color="#63E5FE"
         id="stop229" /></linearGradient></defs><path
     fill="#032e43"
     d="m 567.17944,518.89526 1.22466,0.18903 c 2.75305,5.66767 0.47338,28.35611 -0.43784,35.2355 l -15.77834,-5.52549 c -0.67049,-0.21488 -2.1068,-0.64464 -2.69004,-0.97423 -3.19089,-1.79821 -0.72704,-10.57275 -1.05502,-13.89289 -0.2375,-2.40246 -1.24889,-4.9584 -1.99531,-7.25099 z"
     id="path236"
     style="stroke-width:1.61564" /><path
     fill="#032e43"
     d="m 489.88237,518.0729 q 11.65522,3.59965 22.89685,8.33509 c -0.971,6.20729 0.69957,15.4536 -1.49447,20.90962 l -3.1198,1.12771 -18.86583,6.75823 c -0.51216,-12.46467 -0.2585,-24.69506 0.58325,-37.13065 z"
     id="path238"
     style="stroke-width:1.61564" /><path
     fill="#032e43"
     d="m 548.46225,410.34847 c 31.39124,3.98357 60.87328,20.72313 80.44483,45.58065 3.82624,4.67204 7.51367,9.45982 11.48995,14.0074 -17.93175,7.26354 -36.12905,13.85005 -54.40184,20.20358 -5.0966,-20.81271 -11.13376,-41.84552 -22.96213,-59.96319 -4.39771,-6.93231 -9.35178,-13.49679 -14.57081,-19.82844 z"
     id="path240"
     style="stroke-width:1.61564" /><path
     fill="#032e43"
     d="m 508.98893,410.91233 0.95322,-0.0194 c 0.13733,0.27628 0.49762,0.53155 0.41361,0.83044 -0.45723,1.62534 -14.69748,18.35529 -17.04016,22.03249 -11.13984,17.49092 -16.56839,37.69935 -20.44593,57.84315 -11.78125,-5.43986 -24.23783,-9.59205 -36.43915,-13.9769 q -8.90218,-3.11173 -17.70903,-6.48034 c 2.42992,-3.72405 4.85823,-7.48041 7.48688,-11.06713 19.59448,-26.734 50.19309,-44.26208 82.78056,-49.16232 z"
     id="path242"
     style="stroke-width:1.61564" /><path
     fill="#032e43"
     d="m 418.19479,603.72123 q 27.24293,-11.7037 55.02548,-22.06157 c 6.92786,30.55337 17.974,57.33261 35.69595,83.23132 -10.723,0.53801 -27.03774,-7.18475 -37.19042,-11.38218 -20.50571,-11.44358 -42.52688,-28.45143 -53.53101,-49.78757 z"
     id="path244"
     style="stroke-width:1.61564" /><path
     fill="#032e43"
     d="m 584.85616,579.72735 c 18.78344,6.20568 36.32283,16.15479 54.74436,23.3767 -13.16101,20.7739 -29.91197,34.97861 -50.98799,47.11692 -13.5213,6.97149 -26.36887,11.23516 -41.1132,14.68132 18.92561,-28.12668 28.38841,-52.62948 37.35683,-85.17494 z"
     id="path246"
     style="stroke-width:1.61564" /><path
     fill="#032e43"
     d="m 528.4477,563.33345 c 5.26375,-0.7545 30.12361,9.63245 36.35675,11.96058 -7.46587,28.80202 -18.84644,53.72166 -35.87852,78.12752 -0.89507,0.89184 -0.29405,0.53639 -1.9937,0.64949 -16.14186,-17.94169 -29.33357,-55.04487 -32.9833,-78.65906 z"
     id="path248"
     style="stroke-width:1.61564" /><path
     fill="#032e43"
     d="m 529.45424,423.18473 c 0.73189,0.28597 0.40391,0.12926 1.45246,0.82075 20.10018,13.24502 30.37566,50.96376 34.4293,73.19658 -12.09953,3.863 -23.92602,8.04266 -35.59256,13.08992 -12.12376,-3.83391 -24.91802,-8.74061 -36.42622,-14.13201 6.58373,-29.05567 14.49875,-51.57446 36.13702,-72.97524 z"
     id="path250"
     style="stroke-width:1.61564" /><path
     fill="#032e43"
     d="m 408.38624,489.43891 c 18.22604,4.50441 42.51557,14.96245 60.57843,21.91778 -1.18103,16.98522 -1.18103,32.64886 0.0517,49.61631 -7.17344,2.44931 -14.2241,5.23952 -21.29414,7.97318 q -19.48947,8.23977 -39.15504,16.05139 c -12.90089,-29.32872 -10.86033,-65.89066 -0.18095,-95.55866 z"
     id="path252"
     style="stroke-width:1.61564" /><path
     fill="#032e43"
     d="m 648.89368,489.01723 c 1.08086,0.71573 1.68996,1.87899 2.19889,3.03256 12.92835,29.32063 9.91195,63.64491 -1.07925,93.01079 -11.86849,-4.29276 -23.56896,-9.89418 -35.23388,-14.75564 -8.77616,-3.56572 -17.50708,-7.28492 -26.54497,-10.14461 2.18111,-16.17902 2.79505,-32.7151 0.83044,-48.94259 19.98062,-7.22353 40.2149,-14.03183 59.82877,-22.20051 z"
     id="path254"
     style="stroke-width:1.61564" /></svg>
