<?xml version="1.0" encoding="UTF-8" standalone="no"?>
<svg
   width="256"
   height="256"
   version="1.1"
   id="svg256"
   sodipodi:docname="logo-for-a-decent-cloud--decentralized-cloud--proj.svg"
   inkscape:version="1.2.2 (b0a8486541, 2022-12-01)"
   viewBox="0 0 1024 1024"
   inkscape:export-filename="logo-for-a-decent-cloud--decentralized-cloud--proj.png"
   inkscape:export-xdpi="96"
   inkscape:export-ydpi="96"
   xml:space="preserve"
   xmlns:inkscape="http://www.inkscape.org/namespaces/inkscape"
   xmlns:sodipodi="http://sodipodi.sourceforge.net/DTD/sodipodi-0.dtd"
   xmlns="http://www.w3.org/2000/svg"
   xmlns:svg="http://www.w3.org/2000/svg"><sodipodi:namedview
     id="namedview258"
     pagecolor="#ffffff"
     bordercolor="#666666"
     borderopacity="1.0"
     inkscape:showpageshadow="2"
     inkscape:pageopacity="0.0"
     inkscape:pagecheckerboard="0"
     inkscape:deskcolor="#d1d1d1"
     showgrid="false"
     inkscape:zoom="5.6568543"
     inkscape:cx="234.4059"
     inkscape:cy="120.91526"
     inkscape:window-width="3796"
     inkscape:window-height="1537"
     inkscape:window-x="0"
     inkscape:window-y="0"
     inkscape:window-maximized="1"
     inkscape:current-layer="svg256" /><path
     fill="#032e43"
     d="m 0,0 c 341.33333,0 682.66667,0 1024,0 0,341.33333 0,682.66667 0,1024 -341.33333,0 -682.66667,0 -1024,0 C 0,682.66667 0,341.33333 0,0 Z"
     id="path147" /><path
     fill="#fdfdfc"
     d="m 662.6864,800.13138 18.42638,0.17772 0.005,69.92007 c 12.70054,-0.0291 25.40917,0.23265 38.1081,0.38452 l -0.0646,16.38744 c -18.94015,-0.27628 -37.89323,-0.20196 -56.835,-0.25204 -0.21811,-28.85534 0.24397,-57.75914 0.36029,-86.61771 z"
     id="path149"
     style="stroke-width:1.61564" /><path
     fill="#fdfdfc"
     d="m 452.00529,800.27679 70.34821,0.0113 -0.0985,16.14186 c -8.69376,0.18095 -17.40691,0.0501 -26.10228,0.0388 l 0.11147,46.1233 0.006,25.80985 c -6.18306,0.23104 -12.39358,0.0953 -18.58148,0.0662 l -0.14056,-72.08987 -25.64506,-0.0582 z"
     id="path151"
     style="stroke-width:1.61564" /><path
     fill="#fdfdfc"
     d="m 608.25387,799.35264 c 11.60419,-1.23953 24.12331,0.31916 33.64723,7.56951 2.02607,2.00877 7.75328,4.42227 3.50387,6.98637 -3.00066,3.12945 -6.26552,5.98728 -9.40571,8.97269 -5.67483,-5.7271 -13.79813,-9.53513 -21.96665,-8.03951 -10.27635,1.38686 -19.7121,8.67673 -22.63996,18.78424 -3.81642,11.9176 -0.66965,26.90731 10.2484,34.03598 8.32233,5.72191 19.67416,5.37309 28.3017,0.48974 3.39429,-1.27589 6.80278,-6.53732 9.93359,-1.84946 2.18143,2.49501 6.66625,5.52475 6.83384,8.23561 -8.01202,8.01982 -19.07817,12.68236 -30.395,12.96185 -13.2133,0.66315 -27.34983,-3.98225 -35.57789,-14.78158 -9.44207,-12.09567 -11.12422,-28.81691 -7.49308,-43.3747 2.78144,-11.60802 11.05817,-21.84674 22.22449,-26.30164 4.09134,-1.74575 8.4172,-2.88806 12.78517,-3.6891 z"
     id="path153"
     style="stroke-width:1.61564" /><path
     fill="#fdfdfc"
     d="m 895.52117,799.54975 q 8.0782,0.0969 16.15317,0.28759 c 0.13571,17.03531 2.36045,47.71147 -1.55909,63.15861 -1.26828,4.99717 -3.68043,9.54358 -7.23969,13.29025 -6.68552,7.04258 -16.24526,10.13007 -25.77431,10.40634 -10.66322,0.30697 -22.12942,-2.43154 -29.94427,-10.05574 -11.65362,-11.36926 -9.20592,-29.29479 -9.09444,-44.13606 l 0.12763,-32.72803 c 5.8567,-0.15349 11.73117,0.0404 17.58786,0.14218 0.42976,14.92851 -3.32014,52.46953 4.10535,63.9018 2.36691,3.64489 5.85346,6.10874 10.13814,6.91333 5.16682,0.97261 11.62453,0.006 15.94637,-3.11657 13.72002,-9.91034 5.60304,-50.69718 8.05397,-67.10885 z"
     id="path155"
     style="stroke-width:1.61564" /><path
     fill="#fdfdfc"
     d="m 228.47177,799.34457 c 11.32865,-1.33513 23.55885,-0.21558 33.15916,6.46856 3.2725,2.19344 6.2192,4.84689 8.8798,7.74584 -4.71216,4.3833 -9.65818,8.50383 -14.51815,12.71993 -5.54194,-6.9444 -14.72006,-11.14503 -23.61379,-9.37939 -10.17989,1.62464 -19.27244,9.1902 -21.93576,19.27029 -3.84625,12.61635 2.15635,28.01207 14.66655,33.15299 8.76685,4.01553 19.03159,1.64958 26.80331,-3.48661 3.28846,-3.76441 7.26475,-2.75973 10.03486,0.93913 2.14007,2.73187 6.39451,5.84531 6.67433,8.66803 -8.00139,8.7007 -19.58298,13.74549 -31.38105,13.88512 -15.44569,0.55867 -31.94636,-5.50489 -40.88401,-18.62327 -9.33147,-13.65581 -9.99461,-32.38883 -2.87081,-47.14194 5.62892,-11.78388 17.14751,-19.88124 29.63671,-22.99676 1.76606,-0.47714 3.55166,-0.88084 5.34885,-1.22192 z"
     id="path157"
     style="stroke-width:1.61564" /><path
     fill="#fdfdfc"
     d="m 282.52301,800.48359 58.49103,0.14379 0.002,15.96899 c -12.61491,-0.28758 -25.27346,-0.0727 -37.89484,-0.0646 l -0.0388,19.25358 32.49214,0.1034 v 15.37767 c -6.71137,-0.0889 -27.49658,-2.00986 -32.57293,0.82236 l -0.37321,2.62703 -0.021,16.89637 40.12604,0.19872 -0.0921,15.66202 -60.46534,0.0501 q -0.0905,-43.52212 0.34736,-87.03939 z"
     id="path159"
     style="stroke-width:1.61564" /><path
     fill="#fdfdfc"
     d="m 115.58698,800.63223 c 19.28913,-0.68988 38.84323,-0.0194 58.15821,0.0145 l -0.1858,16.36321 -37.10803,0.0436 -0.10986,18.5524 32.61977,0.0743 -0.0549,16.07723 c -8.38194,-0.0646 -24.91317,-1.59463 -32.30634,0.5057 l -0.51054,1.68188 -0.0485,17.21626 q 19.22935,0.0145 38.45224,0.45561 l 0.006,15.47784 -59.14859,0.0226 z"
     id="path161"
     style="stroke-width:1.61564" /><path
     fill="#fdfdfc"
     d="m 418.67625,800.27517 c 6.09581,-0.10986 12.21101,0.084 18.30844,0.17934 q -0.1858,43.97611 0.34574,87.94899 c -4.82753,0.20196 -9.67607,0.20196 -14.50683,0.28759 -5.00202,-5.15066 -9.29155,-11.35311 -13.70386,-17.02885 -9.61144,-12.36611 -19.01609,-24.96326 -29.18816,-36.87537 l 0.0872,53.12386 c -5.9391,0.73997 -12.41943,0.24881 -18.42477,0.23266 -0.30374,-28.90219 -1.74489,-58.67036 0.21004,-87.48854 l 15.06423,0.0808 q 20.67212,26.32201 41.63182,52.41784 z"
     id="path163"
     style="stroke-width:1.61564" /><path
     fill="#fdfdfc"
     d="m 935.06397,799.54329 c 20.60749,-0.17934 48.77941,-3.96801 65.10223,11.10914 8.117,7.49657 11.9202,17.83506 12.4857,28.66954 0.7108,13.5843 -3.8711,24.33154 -12.83469,34.26934 -18.3666,16.10955 -42.32331,12.41135 -64.96489,12.17385 q -0.15672,-43.11174 0.21165,-86.22187 z"
     id="path165"
     style="stroke-width:1.61564" /><path
     fill="#032e43"
     d="m 955.06559,813.52504 c 9.88126,0.10179 18.99347,-0.3619 27.5499,5.56588 5.79045,4.01002 9.4935,10.01697 10.53559,16.98038 1.51386,10.09452 -1.73197,19.66557 -7.78092,27.64199 -8.78262,7.91017 -19.441,7.0555 -30.42897,7.19122 z"
     id="path167"
     style="stroke-width:1.61564" /><path
     fill="#fdfdfc"
     d="m 17.974844,800.95051 c 21.357148,-0.0501 51.427445,-4.13281 68.152553,12.06722 8.057198,7.80516 11.916963,19.18088 12.033289,30.2561 0.130867,12.44043 -4.46563,23.25552 -13.015598,32.17224 -18.707499,15.52953 -44.627216,11.95251 -67.283339,11.85557 z"
     id="path169"
     style="stroke-width:1.61564" /><path
     fill="#032e43"
     d="m 38.201044,816.96797 c 9.795627,-0.11148 20.670502,-0.58971 29.00559,5.47056 5.341307,3.884 8.07497,9.76331 8.95711,16.1871 1.3636,9.93619 -0.274659,17.74296 -6.423786,25.61436 -9.556512,7.33824 -20.24882,6.59666 -31.59223,6.59504 z"
     id="path171"
     style="stroke-width:1.61564" /><path
     fill="#fdfdfc"
     d="m 769.17648,798.66923 c 16.34088,-1.34005 34.04733,5.63597 42.65768,20.09735 10.57,16.5567 8.40548,40.27644 -5.76696,54.10185 -10.16766,10.24032 -25.29946,15.72833 -39.63961,13.14876 -14.79623,-1.9191 -28.78586,-11.51384 -34.30822,-25.62492 -7.46416,-18.14579 -2.21712,-41.30955 13.87262,-53.09627 6.66687,-5.12104 14.97577,-7.47255 23.18449,-8.62677 z"
     id="path173"
     style="stroke-width:1.61564" /><path
     fill="#032e43"
     d="m 767.71271,814.70446 c 5.82116,-0.69957 10.78763,-0.83206 16.20164,1.7352 6.49973,3.08102 11.11723,8.71153 13.48899,15.44713 2.74174,7.78416 2.3863,16.84305 -1.22466,24.29115 -3.54633,7.31724 -9.11383,11.53083 -16.72188,13.97206 -5.20721,0.97585 -10.00081,0.79166 -15.01576,-1.11802 -6.45125,-2.45901 -11.38865,-7.70337 -13.94459,-14.0593 -3.13434,-7.79224 -3.12949,-17.13064 0.22619,-24.85825 3.50432,-8.06689 9.17684,-12.14476 16.99007,-15.40997 z"
     id="path175"
     style="stroke-width:1.61564" /><defs
     id="defs182"><linearGradient
       id="gradient_0"
       gradientUnits="userSpaceOnUse"
       x1="626.60754"
       y1="589.91522"
       x2="624.04993"
       y2="640.47217"
       gradientTransform="matrix(1.6156403,0,0,1.6156403,-297.84729,-331.77004)"><stop
         offset="0"
         stop-color="#69E8DD"
         id="stop177" /><stop
         offset="1"
         stop-color="#4FE0FB"
         id="stop179" /></linearGradient></defs><path
     fill="url(#gradient_0)"
     d="m 747.00182,671.80592 c 21.90493,-7e-5 44.6563,1.08571 66.45129,-0.67857 31.48559,-2.54948 56.89638,-19.05324 76.94163,-42.7046 0.95969,1.65926 1.59626,2.08579 3.20866,3.03256 2.90493,1.7045 13.71356,8.9668 15.02707,11.63261 -20.40715,27.49819 -53.81051,46.05544 -87.54185,50.87489 -25.63052,3.66104 -60.20199,1.69158 -86.78896,1.69804 -393.24997,-0.10693 -392.65372,-24.30605 12.70216,-23.85493 z"
     id="path184"
     style="fill:url(#gradient_0);stroke-width:1.61564"
     sodipodi:nodetypes="cccccccc" /><defs
     id="defs191"><linearGradient
       id="gradient_1"
       gradientUnits="userSpaceOnUse"
       x1="713.4259"
       y1="440.39105"
       x2="690.01111"
       y2="592.98553"
       gradientTransform="matrix(1.6156403,0,0,1.6156403,-297.84729,-331.77004)"><stop
         offset="0"
         stop-color="#B5E079"
         id="stop186" /><stop
         offset="1"
         stop-color="#6BF1DE"
         id="stop188" /></linearGradient></defs><path
     fill="url(#gradient_1)"
     d="m 770.46738,423.13465 c 36.39715,-7.28008 73.82345,-0.82559 104.87283,19.8853 0.95215,0.63764 1.89622,1.28659 2.83221,1.94685 0.936,0.66133 1.86392,1.33344 2.78375,2.01632 0.91984,0.68395 1.8316,1.37868 2.73528,2.08417 0.90261,0.70657 1.79659,1.42338 2.68196,2.15042 0.88537,0.72811 1.76159,1.46646 2.62865,2.21504 0.86706,0.74966 1.72497,1.50955 2.57372,2.27967 0.84767,0.77012 1.68619,1.55047 2.51555,2.34106 0.83044,0.79059 1.65011,1.59141 2.459,2.40246 0.80997,0.81105 1.61025,1.63126 2.40084,2.46062 0.78951,0.83044 1.56879,1.67057 2.33784,2.5204 0.76904,0.84983 1.52731,1.70881 2.27482,2.57694 0.74858,0.86707 1.48639,1.74382 2.21342,2.63027 0.72597,0.88645 1.4417,1.78151 2.14719,2.68519 0.70442,0.90368 1.39753,1.81544 2.07933,2.73528 0.68288,0.92091 1.35391,1.84991 2.01309,2.78698 0.66025,0.93707 1.30866,1.88222 1.94523,2.83545 0.63656,0.95323 1.26127,1.91399 1.87414,2.8823 0.61287,0.96723 1.21389,1.94254 1.80306,2.92593 0.58917,0.98338 1.16595,1.97323 1.73035,2.96954 0.56547,0.99739 1.11802,2.00124 1.65764,3.01156 0.5407,1.01139 1.06848,2.0287 1.58333,3.05194 0.51593,1.02324 1.01893,2.05294 1.50901,3.0891 0.49007,1.03509 0.96723,2.07664 1.43146,3.12465 0.4653,1.04801 0.91714,2.10087 1.35552,3.15858 0.43837,1.05878 0.86382,2.12295 1.27635,3.1925 0.41361,1.06848 0.81321,2.14234 1.19881,3.22159 0.38667,1.07817 0.75989,2.16119 1.11964,3.24905 0.36083,1.08895 0.70765,2.18166 1.04047,3.27814 0.33282,1.0954 0.65272,2.19565 0.95969,3.30075 0.30589,1.10402 0.59832,2.21181 0.87729,3.32337 0.27897,1.11156 0.54447,2.22635 0.79651,3.34438 0.25204,1.11802 0.49008,2.23874 0.71412,3.36215 6.73399,34.9883 0.68826,72.39199 -19.52663,101.97275 -2.10249,3.08695 -4.34661,6.0678 -6.73238,8.94257 -1.31351,-2.66581 -12.12214,-9.92811 -15.02707,-11.63261 -1.6124,-0.94677 -2.24897,-1.3733 -3.20866,-3.03256 19.32952,-26.90526 28.28179,-55.39707 22.74014,-88.57263 -5.23629,-31.34504 -23.37024,-58.55888 -49.2221,-76.793 -29.31579,-20.6802 -63.13832,-29.61284 -98.46681,-15.42452 -26.35257,10.95419 -15.74764,8.50312 -22.03572,9.12999 -2.52847,0.25204 -4.58842,-0.56225 -6.46417,-2.21343 -0.51485,-0.45561 -0.99955,-0.94192 -1.45408,-1.45892 -1.4977,-1.70612 -2.41377,-3.6869 -2.23928,-6.01988 18.29952,-61.23402 -4.32144,-78.94743 41.13366,-87.92062 7.55425,37.66909 4.56742,40.33723 -3.919,63.98491 z"
     id="path193"
     style="fill:url(#gradient_1);stroke-width:1.61564"
     sodipodi:nodetypes="cccccccccccscccccscscccccccccccssccccccccsccccc" /><defs
     id="defs200"><linearGradient
       id="gradient_2"
       gradientUnits="userSpaceOnUse"
       x1="407.62735"
       y1="451.17563"
       x2="376.97708"
       y2="656.32245"
       gradientTransform="matrix(1.6156403,0,0,1.6156403,-297.84729,-331.77004)"><stop
         offset="0"
         stop-color="#C0E9B2"
         id="stop195" /><stop
         offset="1"
         stop-color="#4DF"
         id="stop197" /></linearGradient></defs><path
     fill="#032e43"
     d="m 419.23849,280.17149 c 45.75515,-80.60195 155.41687,-114.38747 239.32488,-75.70215 58.42023,22.04541 82.36367,82.32674 88.76301,139.96457 8.20566,32.46514 8.96502,70.49327 -12.81303,97.7613 0.16573,33.81619 43.44782,-8.52465 63.03738,0.20468 74.5461,-3.27021 136.94826,78.72523 111.91046,149.53932 -14.89716,49.36924 -65.18581,84.06399 -116.66607,80.11526 -66.91664,-0.0493 -133.85081,-1.12255 -200.76067,0.35409 10.80196,-9.6461 -17.17795,17.80948 -28.54682,10.75289 -24.92865,13.70799 -62.60512,3.05544 -58.83169,-18.43292 -14.37567,0.27745 -46.41999,-22.15986 -20.53037,-0.43375 3.76583,23.78033 -38.07743,-2.25487 -21.9083,6.12105 -70.75001,1.81216 -141.60232,1.02315 -212.366,1.02581 -64.29109,-0.18873 -116.3745,-69.01317 -97.41578,-130.82593 11.69833,-46.19142 58.92736,-79.43859 106.28695,-75.53268 22.81288,-15.88467 -11.38044,-51.9991 2.61356,-77.12131 12.17397,-36.42617 28.59172,-75.72811 60.85297,-99.18557 24.42103,-19.63681 57.06765,-21.09436 86.00582,-12.14699 3.72613,1.03415 7.41126,2.21621 11.0437,3.54233 z"
     id="path206"
     style="stroke-width:1.61564"
     sodipodi:nodetypes="cccsccccscccccccccc" /><path
     fill="url(#gradient_4)"
     d="m 457.2733,666.5355 c -28.30699,-13.83986 -50.52126,-38.90284 -64.59158,-66.78274 -20.90427,-45.40988 -18.49578,-101.64749 10.0518,-143.31451 32.81638,-51.29851 98.35453,-78.57915 157.86542,-65.55341 63.94693,12.35749 115.67435,70.79491 119.01385,136.02937 3.40598,44.66404 -15.95471,90.24532 -51.17891,118.15374 -31.50997,26.50963 -74.06652,41.6315 -115.28568,34.93653 -14.98894,-4.37553 -22.85139,-18.12197 -36.09212,-24.30322 -11.00748,-4.57021 16.34727,6.07259 22.24061,8.81432 14.14515,6.90112 30.54023,12.13209 40.70895,24.67439 -6.35561,11.38695 -27.49578,0.37765 -38.40461,-1.72084 -15.4785,-5.33856 -30.31169,-12.48707 -44.32773,-20.93363 z"
     id="path234"
     style="stroke-width:1.61564;fill-opacity:1;fill:url(#gradient_4)"
     sodipodi:nodetypes="cccccccccccscscsssccscssccsccccccsccccscsccccsccccscccssssscccsscccccccccccscsccccccscccccccscccscccccc" /><path
     fill="url(#gradient_2)"
     d="m 263.23712,437.79174 c 21.17329,40.15797 -38.26998,20.82978 -57.57256,38.08945 -53.36724,24.61903 -74.104,98.30781 -40.48388,146.83997 22.13534,37.64112 67.67505,52.76253 109.41002,49.13114 144.32292,-0.1585 288.66122,0.21032 432.98246,1.23939 41.58234,1.80007 84.01941,-0.13947 124.78227,8.98228 -18.08465,11.55183 -52.10651,7.73798 -76.43636,10.89424 -131.58097,5.38517 -263.33577,1.93917 -394.99013,2.7722 -44.10465,-0.8976 -88.46389,2.21348 -132.33474,-2.42605 -61.46574,-10.60934 -108.29373,-70.34627 -104.47342,-132.53171 1.671,-58.73819 50.02938,-110.9609 108.33411,-117.89222 13.20998,-9.37251 -4.48129,-33.72348 5.74335,-64.35664 6.86231,-33.62644 28.23457,-64.19 55.92264,-83.75804 29.2109,-5.78773 32.81089,8.71982 6.36707,29.12765 -31.45555,24.2756 -49.23755,74.50026 -37.25083,113.88834 z"
     id="path202"
     style="stroke-width:1.61564;fill-opacity:1;fill:url(#gradient_2)"
     sodipodi:nodetypes="ssccccsscssccss" /><path
     fill="#76ecea"
     d="m 300.00586,516.59298 c 9.40494,-0.869 19.34117,3.25726 24.59474,11.26901 7.65203,11.20327 5.2004,28.26338 -5.82367,36.37871 -3.94734,2.90058 -8.67897,4.78358 -13.53317,5.3876 -6.86249,0.28066 -14.0893,-1.31677 -19.43587,-5.84043 -8.19221,-6.47872 -11.54711,-18.07999 -8.50383,-28.00806 2.11118,-7.6004 7.8174,-14.10518 15.21495,-16.93004 2.41286,-0.99899 4.93594,-1.71071 7.48685,-2.25679 z"
     id="path208"
     style="stroke-width:1.61564" /><path
     fill="#81ecb2"
     d="m 752.98938,518.93081 c 15.21789,-2.73544 31.84295,9.69984 31.19853,25.69885 0.85385,17.60837 -18.30096,34.4123 -35.5125,27.25636 -16.37029,-6.17656 -23.54023,-29.06226 -11.97543,-42.78526 4.02448,-5.14155 9.87482,-8.87239 16.2894,-10.16995 z"
     id="path210"
     style="stroke-width:1.61564" /><path
     fill="#fdd75b"
     d="m 419.23849,280.17149 c 32.94311,-57.47923 99.61271,-92.84582 165.41618,-91.69758 33.56219,0.90997 67.76155,9.55899 96.05671,27.91039 51.65047,33.80652 70.79538,74.30428 87.71699,120.90538 5.90786,13.96811 12.53797,36.08973 -10.01543,32.68228 -10.53716,0.14641 -5.31475,-5.22945 -18.4494,-36.03999 -17.47736,-41.23761 -42.10864,-84.14525 -84.70052,-103.3924 -52.27702,-26.40552 -118.13396,-21.66891 -165.94088,12.12624 -18.82941,12.87435 -35.0454,29.47671 -47.76681,48.39186 16.67608,12.1641 35.19419,24.72463 44.35075,43.8594 6.19658,16.40506 -18.53574,26.48458 -25.03249,8.51664 -25.77014,-38.90747 -79.2612,-56.93151 -123.22227,-40.76993 -13.67594,0.93228 -31.17752,22.56352 -41.31034,15.93317 -14.01775,-8.37749 -14.12838,-18.02776 4.23827,-28.37552 36.12782,-20.38507 79.60996,-25.02529 118.65924,-10.04994 z"
     id="path225"
     style="stroke-width:1.61564"
     sodipodi:nodetypes="ccccccccccssscc" /><path
     fill="#fdd75b"
     d="m 359.77485,330.9236 c 1.57848,-0.21488 3.13111,-0.26658 4.72252,-0.21004 4.57872,0.16157 8.6356,1.98562 11.72309,5.43825 1.98562,2.2215 2.96954,4.86954 2.76274,7.8617 -0.94515,13.60046 -23.75153,12.89604 -35.60063,19.60741 -19.10333,10.82156 -16.41975,24.79685 -27.61776,35.08686 -1.09379,0.42815 -2.2005,0.75935 -3.34437,1.02917 -2.8613,0.67695 -7.87463,0.25042 -10.32394,-1.55425 -2.62219,-1.93231 -3.76283,-4.47855 -4.13927,-7.66783 -1.2602,-10.66484 6.35108,-23.45909 12.5309,-31.71825 12.21101,-16.31958 29.30287,-25.09089 49.28672,-27.87302 z"
     id="path212"
     style="stroke-width:1.61564" /><path
     fill="#fdd75b"
     d="m 577.58255,245.84883 c 12.99783,-0.31344 25.12321,0.63333 37.75105,3.90338 q 1.62857,0.42653 3.24744,0.89345 1.61887,0.46531 3.22482,0.971 1.60756,0.5057 3.20058,1.05017 1.59464,0.54447 3.17473,1.12771 1.5801,0.58325 3.14404,1.20527 1.56555,0.62041 3.11657,1.27959 1.5494,0.65918 3.08264,1.35714 1.53324,0.69634 3.04871,1.42984 1.51547,0.73512 3.01317,1.50578 1.4977,0.77066 2.97601,1.57686 1.47831,0.80782 2.93724,1.65118 1.4573,0.84175 2.89522,1.72066 1.43631,0.87729 2.85161,1.79013 1.41692,0.91284 2.8096,1.8596 1.39268,0.94677 2.76113,1.92746 1.37006,0.9807 2.71427,1.9937 1.34583,1.01462 2.66581,2.05994 1.31998,1.04694 2.6141,2.12457 1.29413,1.07763 2.56079,2.18758 1.26828,1.10833 2.50748,2.24897 1.24081,1.13903 2.45254,2.30875 1.21173,1.16972 2.39599,2.36853 1.18265,1.1988 2.33622,2.42507 1.15357,1.22789 2.27644,2.48163 1.12287,1.25535 2.21504,2.53817 1.09379,1.2812 2.15365,2.58987 1.06147,1.30705 2.09064,2.64157 1.02754,1.3329 2.02439,2.69166 0.99524,1.35714 1.95816,2.74012 0.96292,1.38138 1.89192,2.78698 0.92737,1.40561 1.82244,2.83222 0.89345,1.42661 1.75297,2.87584 c 7.11851,12.25948 20.93708,44.03912 16.58131,58.25353 -1.24404,4.05525 -3.98578,6.00695 -7.52242,8.01034 -1.8596,0.2892 -3.78544,0.57194 -5.67413,0.45076 -3.90338,-0.25042 -7.05711,-2.13264 -8.9668,-5.56426 -2.69973,-4.85015 -2.57371,-12.04298 -3.67397,-17.50223 -3.70143,-18.38276 -14.03506,-36.89638 -26.78893,-50.513 -19.27943,-20.58002 -46.90688,-33.68771 -75.10788,-34.67487 -5.847,-0.20518 -11.16408,-0.39421 -15.26619,-5.16681 -2.1488,-2.50102 -2.96147,-5.31869 -2.6755,-8.58552 0.47985,-5.49156 3.38638,-8.46918 7.4271,-11.85233 z"
     id="path214"
     style="stroke-width:1.61564" /><defs
     id="defs221"><linearGradient
       id="gradient_3"
       gradientUnits="userSpaceOnUse"
       x1="712.56903"
       y1="509.88977"
       x2="680.86432"
       y2="597.87006"
       gradientTransform="matrix(1.6156403,0,0,1.6156403,-297.84729,-331.77004)"><stop
         offset="0"
         stop-color="#93EAA3"
         id="stop216" /><stop
         offset="1"
         stop-color="#67EBC0"
         id="stop218" /></linearGradient></defs><path
     fill="url(#gradient_3)"
     d="m 805.79497,477.69644 c 13.36458,-0.56225 29.42404,5.33323 40.67213,12.28533 18.31328,11.31594 30.73917,30.94435 35.44068,51.76026 4.57065,20.23913 0.13087,41.69645 -11.02674,59.07104 -13.85735,21.57526 -34.28227,31.40159 -58.61058,36.82044 -0.81913,0.10987 -1.63988,0.23589 -2.46547,0.28274 -2.63349,0.14703 -5.05534,-0.79166 -6.91494,-2.64642 -2.88876,-2.8823 -6.46902,-7.26068 -6.01018,-11.64715 1.03401,-9.91195 18.30843,-10.68261 25.1636,-13.03337 5.01817,-1.72227 9.85702,-4.44786 14.11261,-7.60805 12.75548,-9.47573 20.90477,-22.5915 23.02288,-38.40054 3.17796,-23.70144 -9.13483,-47.60807 -31.01545,-57.66866 -7.52565,-3.45909 -24.65467,-4.01487 -29.12353,-10.47743 -1.7659,-2.55271 -2.61411,-5.81469 -1.84183,-8.85855 1.2085,-4.75806 4.61104,-7.42387 8.59682,-9.87964 z"
     id="path223"
     style="fill:url(#gradient_3);stroke-width:1.61564" /><defs
     id="defs232"><linearGradient
       id="gradient_4"
       gradientUnits="userSpaceOnUse"
       x1="520.57867"
       y1="446.31296"
       x2="521.17883"
       y2="575.46667"
       gradientTransform="matrix(1.6156403,0,0,1.6156403,-297.84729,-331.77004)"><stop
         offset="0"
         stop-color="#AFE8AC"
         id="stop227" /><stop
         offset="1"
         stop-color="#63E5FE"
         id="stop229" /></linearGradient></defs><path
     fill="#032e43"
     d="m 567.17944,518.89526 1.22466,0.18903 c 2.75305,5.66767 0.47338,28.35611 -0.43784,35.2355 l -15.77834,-5.52549 c -0.67049,-0.21488 -2.1068,-0.64464 -2.69004,-0.97423 -3.19089,-1.79821 -0.72704,-10.57275 -1.05502,-13.89289 -0.2375,-2.40246 -1.24889,-4.9584 -1.99531,-7.25099 z"
     id="path236"
     style="stroke-width:1.61564" /><path
     fill="#032e43"
     d="m 489.88237,518.0729 q 11.65522,3.59965 22.89685,8.33509 c -0.971,6.20729 0.69957,15.4536 -1.49447,20.90962 l -3.1198,1.12771 -18.86583,6.75823 c -0.51216,-12.46467 -0.2585,-24.69506 0.58325,-37.13065 z"
     id="path238"
     style="stroke-width:1.61564" /><path
     fill="#032e43"
     d="m 548.46225,410.34847 c 31.39124,3.98357 60.87328,20.72313 80.44483,45.58065 3.82624,4.67204 7.51367,9.45982 11.48995,14.0074 -17.93175,7.26354 -36.12905,13.85005 -54.40184,20.20358 -5.0966,-20.81271 -11.13376,-41.84552 -22.96213,-59.96319 -4.39771,-6.93231 -9.35178,-13.49679 -14.57081,-19.82844 z"
     id="path240"
     style="stroke-width:1.61564" /><path
     fill="#032e43"
     d="m 508.98893,410.91233 0.95322,-0.0194 c 0.13733,0.27628 0.49762,0.53155 0.41361,0.83044 -0.45723,1.62534 -14.69748,18.35529 -17.04016,22.03249 -11.13984,17.49092 -16.56839,37.69935 -20.44593,57.84315 -11.78125,-5.43986 -24.23783,-9.59205 -36.43915,-13.9769 q -8.90218,-3.11173 -17.70903,-6.48034 c 2.42992,-3.72405 4.85823,-7.48041 7.48688,-11.06713 19.59448,-26.734 50.19309,-44.26208 82.78056,-49.16232 z"
     id="path242"
     style="stroke-width:1.61564" /><path
     fill="#032e43"
     d="m 418.19479,603.72123 q 27.24293,-11.7037 55.02548,-22.06157 c 6.92786,30.55337 17.974,57.33261 35.69595,83.23132 -10.723,0.53801 -27.03774,-7.18475 -37.19042,-11.38218 -20.50571,-11.44358 -42.52688,-28.45143 -53.53101,-49.78757 z"
     id="path244"
     style="stroke-width:1.61564" /><path
     fill="#032e43"
     d="m 584.85616,579.72735 c 18.78344,6.20568 36.32283,16.15479 54.74436,23.3767 -13.16101,20.7739 -29.91197,34.97861 -50.98799,47.11692 -13.5213,6.97149 -26.36887,11.23516 -41.1132,14.68132 18.92561,-28.12668 28.38841,-52.62948 37.35683,-85.17494 z"
     id="path246"
     style="stroke-width:1.61564" /><path
     fill="#032e43"
     d="m 528.4477,563.33345 c 5.26375,-0.7545 30.12361,9.63245 36.35675,11.96058 -7.46587,28.80202 -18.84644,53.72166 -35.87852,78.12752 -0.89507,0.89184 -0.29405,0.53639 -1.9937,0.64949 -16.14186,-17.94169 -29.33357,-55.04487 -32.9833,-78.65906 z"
     id="path248"
     style="stroke-width:1.61564" /><path
     fill="#032e43"
     d="m 529.45424,423.18473 c 0.73189,0.28597 0.40391,0.12926 1.45246,0.82075 20.10018,13.24502 30.37566,50.96376 34.4293,73.19658 -12.09953,3.863 -23.92602,8.04266 -35.59256,13.08992 -12.12376,-3.83391 -24.91802,-8.74061 -36.42622,-14.13201 6.58373,-29.05567 14.49875,-51.57446 36.13702,-72.97524 z"
     id="path250"
     style="stroke-width:1.61564" /><path
     fill="#032e43"
     d="m 408.38624,489.43891 c 18.22604,4.50441 42.51557,14.96245 60.57843,21.91778 -1.18103,16.98522 -1.18103,32.64886 0.0517,49.61631 -7.17344,2.44931 -14.2241,5.23952 -21.29414,7.97318 q -19.48947,8.23977 -39.15504,16.05139 c -12.90089,-29.32872 -10.86033,-65.89066 -0.18095,-95.55866 z"
     id="path252"
     style="stroke-width:1.61564" /><path
     fill="#032e43"
     d="m 648.89368,489.01723 c 1.08086,0.71573 1.68996,1.87899 2.19889,3.03256 12.92835,29.32063 9.91195,63.64491 -1.07925,93.01079 -11.86849,-4.29276 -23.56896,-9.89418 -35.23388,-14.75564 -8.77616,-3.56572 -17.50708,-7.28492 -26.54497,-10.14461 2.18111,-16.17902 2.79505,-32.7151 0.83044,-48.94259 19.98062,-7.22353 40.2149,-14.03183 59.82877,-22.20051 z"
     id="path254"
     style="stroke-width:1.61564" /></svg>
