<?xml version="1.0" encoding="UTF-8" standalone="no"?>
<svg
   width="256"
   height="256"
   version="1.1"
   id="svg256"
   sodipodi:docname="token-logo.svg"
   inkscape:version="1.2.2 (b0a8486541, 2022-12-01)"
   viewBox="0 0 1024 1024"
   inkscape:export-filename="logo-for-a-decent-cloud--decentralized-cloud--proj.png"
   inkscape:export-xdpi="96"
   inkscape:export-ydpi="96"
   xml:space="preserve"
   xmlns:inkscape="http://www.inkscape.org/namespaces/inkscape"
   xmlns:sodipodi="http://sodipodi.sourceforge.net/DTD/sodipodi-0.dtd"
   xmlns="http://www.w3.org/2000/svg"
   xmlns:svg="http://www.w3.org/2000/svg"><sodipodi:namedview
     id="namedview258"
     pagecolor="#ffffff"
     bordercolor="#666666"
     borderopacity="1.0"
     inkscape:showpageshadow="2"
     inkscape:pageopacity="0.0"
     inkscape:pagecheckerboard="0"
     inkscape:deskcolor="#d1d1d1"
     showgrid="false"
     inkscape:zoom="4"
     inkscape:cx="166.75"
     inkscape:cy="91.5"
     inkscape:window-width="3796"
     inkscape:window-height="1537"
     inkscape:window-x="0"
     inkscape:window-y="0"
     inkscape:window-maximized="1"
     inkscape:current-layer="svg256" /><path
     fill="#032e43"
     d="m 0,0 c 341.33333,0 682.66667,0 1024,0 0,341.33333 0,682.66667 0,1024 -341.33333,0 -682.66667,0 -1024,0 C 0,682.66667 0,341.33333 0,0 Z"
     id="path147" /><defs
     id="defs182"><linearGradient
       id="gradient_0"
       gradientUnits="userSpaceOnUse"
       x1="626.60754"
       y1="589.91522"
       x2="624.04993"
       y2="640.47217"
       gradientTransform="matrix(1.877181,0,0,1.877181,-445.18375,-423.53598)"><stop
         offset="0"
         stop-color="#69E8DD"
         id="stop177" /><stop
         offset="1"
         stop-color="#4FE0FB"
         id="stop179" /></linearGradient></defs><path
     fill="url(#gradient_0)"
     d="m 768.80602,742.49932 c 25.45091,-8e-5 51.88528,1.26147 77.20845,-0.78842 36.58249,-2.96219 66.10679,-22.13758 89.39698,-49.61764 1.11504,1.92786 1.85466,2.42344 3.72808,3.52348 3.37518,1.98042 15.93351,10.41834 17.45966,13.5157 -23.71067,31.94961 -62.52138,53.51091 -101.71317,59.11054 -29.7796,4.25369 -69.94751,1.96541 -100.83839,1.97292 -456.90946,-0.12424 -456.21669,-28.24073 14.75839,-27.71658 z"
     id="path184"
     style="fill:url(#gradient_0);stroke-width:1.87718"
     sodipodi:nodetypes="cccccccc" /><defs
     id="defs191"><linearGradient
       id="gradient_1"
       gradientUnits="userSpaceOnUse"
       x1="713.4259"
       y1="440.39105"
       x2="690.01111"
       y2="592.98553"
       gradientTransform="matrix(1.877181,0,0,1.877181,-445.18375,-423.53598)"><stop
         offset="0"
         stop-color="#B5E079"
         id="stop186" /><stop
         offset="1"
         stop-color="#6BF1DE"
         id="stop188" /></linearGradient></defs><path
     fill="url(#gradient_1)"
     d="m 796.07019,453.57303 c 52.6968,-11.27062 110.6563,5.49643 147.89651,44.78437 45.61763,45.63876 59.3537,119.57818 32.74304,178.41567 -5.21235,11.62236 -11.97685,22.55409 -20.11055,32.35937 -7.39284,-9.76431 -29.66643,-14.30177 -14.25749,-27.36746 21.28576,-32.33886 27.34685,-74.07716 15.05653,-110.90717 -15.77106,-49.54311 -61.57754,-87.92538 -112.76556,-95.9128 -26.9623,-4.17614 -53.73493,4.91439 -77.22269,17.5247 -18.91714,2.56058 -14.07705,-19.04289 -9.74815,-29.79625 5.43504,-20.65095 3.82649,-42.43575 9.26645,-62.99945 4.15292,-13.04058 24.32956,-21.26095 34.0978,-18.42175 4.12326,20.01467 7.96544,41.58854 -0.82427,60.97872 -1.36562,3.7849 -2.77499,7.55388 -4.13162,11.34205 z"
     id="path193"
     style="fill:url(#gradient_1);stroke-width:1.87718"
     sodipodi:nodetypes="cccccccccccscccccscscccccccccccssccccccccsccccc" /><defs
     id="defs200"><linearGradient
       id="gradient_2"
       gradientUnits="userSpaceOnUse"
       x1="407.62735"
       y1="451.17563"
       x2="376.97708"
       y2="656.32245"
       gradientTransform="matrix(1.877181,0,0,1.877181,-445.18375,-423.53598)"><stop
         offset="0"
         stop-color="#C0E9B2"
         id="stop195" /><stop
         offset="1"
         stop-color="#4DF"
         id="stop197" /></linearGradient></defs><path
     fill="#032e43"
     d="m 387.98421,287.46693 c 53.16202,-93.64983 180.57582,-132.90456 278.0669,-87.95685 67.87732,25.61413 95.69674,95.65383 103.13201,162.6221 9.53399,37.72061 10.41628,81.90475 -14.88721,113.58694 0.19256,39.29037 50.48117,-9.90462 73.2419,0.23782 86.61365,-3.7996 159.1175,91.4693 130.02657,173.74681 -17.30872,57.36116 -75.73812,97.67231 -135.55202,93.08436 -77.74914,-0.0573 -155.51864,-1.30427 -233.2599,0.41141 12.55059,-11.20762 -19.95873,20.69248 -33.16799,12.49357 -28.96411,15.92704 -72.73967,3.55005 -68.35539,-21.41685 -16.70281,0.32236 -53.93448,-25.74711 -23.85384,-0.50397 4.37544,27.6299 -44.24142,-2.61989 -25.45482,7.11193 -82.20306,2.10551 -164.52497,1.18878 -246.74391,1.19187 -74.69856,-0.21928 -135.213256,-80.18505 -113.18549,-152.00409 13.592061,-53.66891 68.46655,-92.29815 123.49273,-87.75995 26.50584,-18.45608 -13.22271,-60.41673 3.03664,-89.60574 14.1447,-42.32285 33.22016,-87.98701 70.70388,-115.24177 28.37432,-22.81563 66.30579,-24.50913 99.92848,-14.11335 4.32932,1.20156 8.611,2.57497 12.83146,4.11576 z"
     id="path206"
     style="stroke-width:1.87718"
     sodipodi:nodetypes="cccsccccscccccccccc" /><path
     fill="url(#gradient_4)"
     d="m 364.78361,498.18098 c 41.09798,-69.54115 132.90548,-104.79217 209.27161,-76.18738 71.91881,24.35881 123.7369,99.23897 116.39324,175.64761 C 679.92621,726.69003 553.34489,783.03578 445.12474,743.73955 330.89623,688.77149 326.04291,563.57541 364.78361,498.18098 Z"
     id="path234"
     style="fill:url(#gradient_4);fill-opacity:1;stroke-width:1.87718"
     sodipodi:nodetypes="ccccc" /><path
     fill="url(#gradient_2)"
     d="m 206.72927,470.60282 c 24.60083,46.65876 -44.46514,24.20171 -66.89243,44.25539 -62.006357,28.60437 -86.099993,114.22192 -47.037433,170.61049 25.718623,43.73448 78.630313,61.30375 127.121363,57.08451 167.68598,-0.18416 335.38983,0.24436 503.07386,1.44002 48.31371,2.09147 97.62051,-0.16205 144.98208,10.43634 -21.0122,13.42184 -60.54154,8.9906 -88.80991,12.6578 -152.88136,6.25692 -305.96469,2.25308 -458.93132,3.22097 -51.24433,-1.04291 -102.78446,2.5718 -153.75714,-2.81878 C 95.062495,755.16277 40.653969,685.7556 45.092712,613.50355 47.034214,545.2568 103.22087,484.58025 170.964,476.52689 c 15.34841,-10.88974 -5.20673,-39.18266 6.67308,-74.77473 7.97319,-39.0699 32.8052,-74.5811 64.97543,-97.31682 33.93957,-6.72466 38.12233,10.13138 7.39777,33.84284 -36.54759,28.20535 -57.20815,86.5604 -43.28101,132.32464 z"
     id="path202"
     style="fill:url(#gradient_2);fill-opacity:1;stroke-width:1.87718"
     sodipodi:nodetypes="ssccccsscssccss" /><path
     fill="#76ecea"
     d="m 249.45015,562.16044 c 10.92741,-1.00968 22.47213,3.78455 28.57615,13.09324 8.89074,13.01686 6.04224,32.83867 -6.76641,42.26771 -4.58634,3.37013 -10.08393,5.55795 -15.72393,6.25975 -7.97339,0.32609 -16.37008,-1.52993 -22.58216,-6.78588 -9.51836,-7.5275 -13.41636,-21.00679 -9.88043,-32.54202 2.45294,-8.83075 9.08289,-16.38853 17.67795,-19.67068 2.80346,-1.16071 5.73498,-1.98764 8.69883,-2.62212 z"
     id="path208"
     style="stroke-width:1.87718" /><path
     fill="#81ecb2"
     d="m 775.76285,564.87672 c 17.68136,-3.17826 36.9977,11.27005 36.24896,29.85899 0.99207,20.45882 -21.26353,39.98298 -41.26128,31.66863 -19.02032,-7.17642 -27.35093,-33.76687 -13.91402,-49.71136 4.67597,-5.97386 11.47336,-10.30865 18.92634,-11.81626 z"
     id="path210"
     style="stroke-width:1.87718" /><path
     fill="#fdd75b"
     d="m 387.98421,287.46693 c 38.27596,-66.78399 115.73806,-107.87574 192.19383,-106.54162 38.99525,1.05727 78.73082,11.1064 111.60641,32.42853 60.01167,39.27914 82.25577,86.33269 101.91666,140.4776 6.86422,16.22927 14.56762,41.93195 -11.63674,37.9729 -12.24292,0.17011 -6.1751,-6.07599 -21.43599,-41.87416 -20.30661,-47.91317 -48.92521,-97.76672 -98.41188,-120.12961 -60.73965,-30.68005 -137.25754,-25.17668 -192.80347,14.08924 -21.87752,14.95846 -40.71856,34.24842 -55.49932,56.22556 19.37561,14.13323 40.89144,28.72707 51.53027,50.95938 7.19969,19.06072 -21.53631,30.77192 -29.08476,9.89532 -29.94182,-45.20583 -92.09204,-66.14761 -143.16955,-47.36979 -15.8898,1.0832 -36.22455,26.21612 -47.99767,18.51244 -16.28695,-9.73364 -16.41549,-20.9461 4.92436,-32.96896 41.97621,-23.68501 92.49726,-29.0764 137.86785,-11.67683 z"
     id="path225"
     style="stroke-width:1.87718"
     sodipodi:nodetypes="ccccccccccssscc" /><path
     fill="#fdd75b"
     d="m 318.89457,346.43482 c 1.834,-0.24967 3.63798,-0.30974 5.487,-0.24405 5.31993,0.18773 10.03354,2.30706 13.62083,6.3186 2.30706,2.58112 3.45025,5.65782 3.20998,9.13436 -1.09816,15.8021 -27.59644,14.98365 -41.36368,22.78146 -22.19579,12.57336 -19.07779,28.81098 -32.08854,40.76674 -1.27085,0.49746 -2.55671,0.88227 -3.88575,1.19577 -3.32449,0.78654 -9.14938,0.29096 -11.99519,-1.80585 -3.04667,-2.24511 -4.37196,-5.20354 -4.80933,-8.9091 -1.46421,-12.39127 7.37919,-27.25666 14.5594,-36.85282 14.18774,-18.9614 34.04643,-29.15261 57.26528,-32.38511 z"
     id="path212"
     style="stroke-width:1.87718" /><path
     fill="#fdd75b"
     d="m 571.96108,247.5881 c 44.91059,-2.16807 89.6819,17.2351 120.23343,49.92174 19.98106,20.88809 33.14464,47.66027 39.83517,75.62828 1.76146,9.19289 3.94373,21.67562 -5.28434,27.68079 -8.25434,6.09539 -21.26137,0.29586 -22.02946,-10.10362 -1.51854,-11.68396 -3.43577,-23.43879 -8.28624,-34.28944 -15.9056,-39.20998 -52.35492,-69.13654 -93.95071,-76.99335 -9.52716,-2.42854 -19.53078,-1.19933 -29.03911,-3.4305 -9.09448,-2.3888 -13.06059,-13.94939 -7.88312,-21.62418 1.64128,-2.67892 4.02306,-4.78673 6.40438,-6.78972 z m 57.33086,17.71387 c -419.52796,-176.86798 -209.76398,-88.43399 0,0 z"
     id="path214"
     style="stroke-width:1.87718"
     sodipodi:nodetypes="cccccccccccc" /><defs
     id="defs221"><linearGradient
       id="gradient_3"
       gradientUnits="userSpaceOnUse"
       x1="712.56903"
       y1="509.88977"
       x2="680.86432"
       y2="597.87006"
       gradientTransform="matrix(1.877181,0,0,1.877181,-445.18375,-423.53598)"><stop
         offset="0"
         stop-color="#93EAA3"
         id="stop216" /><stop
         offset="1"
         stop-color="#67EBC0"
         id="stop218" /></linearGradient></defs><path
     fill="url(#gradient_3)"
     d="m 837.11663,516.96731 c 15.52804,-0.65327 34.18722,6.19658 47.25615,14.27408 21.27784,13.14777 35.71524,35.95364 41.17783,60.13924 5.31055,23.51545 0.15206,48.44629 -12.81175,68.63349 -16.10058,25.06787 -39.8319,36.48489 -68.09849,42.78094 -0.95173,0.12766 -1.90534,0.27408 -2.86458,0.32851 -3.0598,0.17084 -5.8737,-0.91981 -8.03433,-3.07482 -3.35639,-3.34889 -7.51623,-8.43604 -6.98311,-13.53259 1.20139,-11.51651 21.27221,-12.41192 29.23709,-15.14322 5.83052,-2.00107 11.45268,-5.16788 16.39717,-8.83965 14.82034,-11.00966 24.28884,-26.24862 26.74983,-44.61683 3.69241,-27.53824 -10.61358,-55.31489 -36.03624,-67.00409 -8.74391,-4.01905 -28.64578,-4.6648 -33.83806,-12.17352 -2.05177,-2.96595 -3.03729,-6.75598 -2.13999,-10.29258 1.40413,-5.5283 5.35748,-8.62565 9.98848,-11.47896 z"
     id="path223"
     style="fill:url(#gradient_3);stroke-width:1.87718" /><defs
     id="defs232"><linearGradient
       id="gradient_4"
       gradientUnits="userSpaceOnUse"
       x1="520.57867"
       y1="446.31296"
       x2="508.74954"
       y2="598.79993"
       gradientTransform="matrix(1.877181,0,0,1.877181,-445.18375,-423.53598)"><stop
         offset="0"
         stop-color="#AFE8AC"
         id="stop227" /><stop
         offset="1"
         stop-color="#63E5FE"
         id="stop229" /></linearGradient></defs><path
     fill="#032e43"
     d="m 559.87391,564.83541 1.42291,0.21963 c 3.19871,6.58516 0.55001,32.94641 -0.50872,40.93944 l -18.33255,-6.41996 c -0.77902,-0.24966 -2.44785,-0.74899 -3.1255,-1.13194 -3.70743,-2.0893 -0.84473,-12.28427 -1.22581,-16.14187 -0.27594,-2.79137 -1.45106,-5.76107 -2.31831,-8.42479 z"
     id="path236"
     style="stroke-width:1.87718" /><path
     fill="#032e43"
     d="m 470.06395,563.87993 q 13.54198,4.18236 26.60341,9.68438 c -1.12819,7.21213 0.81281,17.95523 -1.7364,24.29448 l -3.62483,1.31026 -21.91984,7.85226 c -0.59507,-14.48246 -0.30035,-28.69271 0.67766,-43.14138 z"
     id="path238"
     style="stroke-width:1.87718" /><path
     fill="#032e43"
     d="m 538.12677,438.71702 c 36.47287,4.62843 70.72748,24.0778 93.46728,52.95927 4.44563,5.42835 8.72998,10.99118 13.34995,16.27492 -20.83455,8.43937 -41.97764,16.0921 -63.20844,23.47414 -5.92164,-24.18188 -12.9361,-48.61949 -26.67925,-69.67005 -5.10961,-8.05452 -10.86565,-15.68166 -16.92954,-23.03828 z"
     id="path240"
     style="stroke-width:1.87718" /><path
     fill="#032e43"
     d="m 492.26349,439.37216 1.10753,-0.0225 c 0.15956,0.321 0.57818,0.61759 0.48057,0.96487 -0.53125,1.88845 -17.07672,21.32665 -19.79863,25.59912 -12.94317,20.32236 -19.25049,43.80214 -23.75573,67.20682 -13.6884,-6.32046 -28.16146,-11.14481 -42.33794,-16.23948 q -10.34326,-3.61546 -20.57577,-7.52938 c 2.82327,-4.3269 5.64468,-8.69135 8.69886,-12.85869 22.76644,-31.06171 58.31837,-51.42724 96.18111,-57.12073 z"
     id="path242"
     style="stroke-width:1.87718" /><path
     fill="#032e43"
     d="m 386.77156,663.39305 q 31.65302,-13.5983 63.93303,-25.63291 c 8.04934,35.49937 20.88363,66.61364 41.47442,96.70485 -12.45884,0.6251 -31.41462,-8.34782 -43.21082,-13.22474 -23.82518,-13.29607 -49.41115,-33.05716 -62.19663,-57.8472 z"
     id="path244"
     style="stroke-width:1.87718" /><path
     fill="#032e43"
     d="m 580.41214,635.51503 c 21.82412,7.21026 42.20279,18.76993 63.60641,27.16093 -15.29152,24.13679 -34.75414,40.64096 -59.24195,54.74423 -15.71014,8.10004 -30.63748,13.05391 -47.76863,17.05794 21.9893,-32.67984 32.98394,-61.14917 43.40417,-98.9631 z"
     id="path246"
     style="stroke-width:1.87718" /><path
     fill="#032e43"
     d="m 514.87226,616.46728 c 6.11585,-0.87664 35.00003,11.19175 42.24219,13.89676 -8.67444,33.46451 -21.89731,62.41815 -41.68655,90.77484 -1.03996,1.03621 -0.34165,0.62322 -2.31644,0.75463 -18.75491,-20.8461 -34.0821,-63.95556 -38.32265,-91.39242 z"
     id="path248"
     style="stroke-width:1.87718" /><path
     fill="#032e43"
     d="m 516.04174,453.63122 c 0.85036,0.33226 0.46929,0.15018 1.68758,0.95361 23.35401,15.38913 35.29289,59.2138 40.00273,85.04568 -14.05821,4.48834 -27.79917,9.34461 -41.3543,15.20892 -14.08636,-4.45454 -28.95176,-10.15554 -42.32291,-16.41971 7.64951,-33.75921 16.84581,-59.92335 41.9869,-84.7885 z"
     id="path250"
     style="stroke-width:1.87718" /><path
     fill="#032e43"
     d="m 375.37519,530.61066 c 21.17648,5.23358 49.39801,17.38457 70.3849,25.46584 -1.37222,19.73479 -1.37222,37.93407 0.0601,57.64822 -8.33468,2.8458 -16.52671,6.08769 -24.74125,9.26388 q -22.64443,9.57363 -45.49347,18.6498 c -14.9893,-34.07647 -12.61841,-76.55707 -0.21025,-111.02774 z"
     id="path252"
     style="stroke-width:1.87718" /><path
     fill="#032e43"
     d="m 654.81609,530.12071 c 1.25583,0.8316 1.96353,2.18317 2.55484,3.52348 15.0212,34.06706 11.51651,73.94777 -1.25396,108.06742 -13.78976,-4.98768 -27.38431,-11.49586 -40.93755,-17.14429 -10.19685,-4.14294 -20.34114,-8.46421 -30.84208,-11.78683 2.53419,-18.79809 3.24751,-38.01103 0.96487,-56.86544 23.21509,-8.39288 46.7249,-16.30331 69.51388,-25.79434 z"
     id="path254"
     style="stroke-width:1.87718" /><path
     fill="#fdd75b"
     d="m 571.96108,247.5881 c 44.91059,-2.16807 89.6819,17.2351 120.23343,49.92174 19.98106,20.88809 33.14464,47.66027 39.83517,75.62828 1.76146,9.19289 3.94373,21.67562 -5.28434,27.68079 -8.25434,6.09539 -21.26137,0.29586 -22.02946,-10.10362 -1.51854,-11.68396 -3.43577,-23.43879 -8.28624,-34.28944 -15.9056,-39.20998 -52.35492,-69.13654 -93.95071,-76.99335 -9.52716,-2.42854 -19.53078,-1.19933 -29.03911,-3.4305 -9.09448,-2.3888 -13.06059,-13.94939 -7.88312,-21.62418 1.64128,-2.67892 4.02306,-4.78673 6.40438,-6.78972 z m 57.33086,17.71387 c -419.52796,-176.86798 -209.76398,-88.43399 0,0 z"
     id="path406"
     style="stroke-width:1.87718"
     sodipodi:nodetypes="cccccccccccc" /></svg>
